<?xml version="1.0" encoding="utf-8"?>
<!-- Generator: Adobe Illustrator 23.1.0, SVG Export Plug-In . SVG Version: 6.00 Build 0)  -->
<svg version="1.1" id="Layer_1" xmlns="http://www.w3.org/2000/svg" xmlns:xlink="http://www.w3.org/1999/xlink" x="0px" y="0px"
	 viewBox="0 0 187.47 162.24" style="enable-background:new 0 0 187.47 162.24;" xml:space="preserve">
<g>
	<g>
		<path d="M10,154.41c23.35,0.87,46.79-1.82,69.35-7.87c11.24-3.02,22.25-6.87,32.93-11.49c10.31-4.46,20.42-9.55,29.74-15.84
			c17.54-11.84,32.22-28.84,37.08-49.85c2.41-10.42,2.13-21.38-0.73-31.68c-1.44-5.16-3.52-10.16-6.25-14.77
			c-2.6-4.39-5.82-8.81-10.41-11.28c-8.72-4.69-20.09-1.99-28.56,2.01c-8.59,4.06-15.96,10.58-21.27,18.44
			c-1.37,2.03-2.6,4.15-3.69,6.34c0.38,0.05,0.76,0.1,1.14,0.15c-2.98-11.15-7.17-25.27-18.65-30.47
			c-5.62-2.55-12.05-2.12-17.63,0.31c-6.04,2.63-10.73,7.46-13.9,13.17c-3.85,6.91-5.56,14.84-5.95,22.69
			c0.31-0.18,0.63-0.36,0.94-0.54c-3.11-2.34-3.71-6.8-6.06-9.77c-2.03-2.56-4.91-4.31-8.06-5.11c-6.91-1.77-13.77,0.85-18.85,5.59
			c-6.11,5.7-10.01,13.73-12.94,21.44c-3.08,8.1-4.91,17.43-1.35,25.69c3.53,8.19,11.39,13.2,19.01,17.14
			c0.71,0.37,1.35-0.71,0.63-1.08c-6.45-3.33-13.08-7.34-16.99-13.67c-4.63-7.5-3.79-16.54-1.2-24.6
			c2.48-7.68,6.19-15.69,11.56-21.8c4.66-5.29,11.17-8.99,18.4-7.8c3.58,0.59,6.94,2.39,9.11,5.35c2.28,3.11,2.9,7.28,6.11,9.69
			c0.41,0.3,0.92-0.12,0.94-0.54c0.63-12.68,5.14-27.05,16.91-33.62c5.22-2.92,11.58-4.01,17.32-2.01
			c5.5,1.92,9.55,6.43,12.38,11.36c3.36,5.86,5.33,12.42,7.07,18.91c0.13,0.5,0.9,0.64,1.14,0.15c4.28-8.59,10.77-16.02,18.86-21.2
			c3.87-2.48,8.08-4.44,12.5-5.72c4.83-1.4,10.08-2.19,15.08-1.26c5.56,1.04,9.72,4.47,12.94,8.98c3.08,4.32,5.49,9.14,7.25,14.14
			c3.52,10.01,4.53,20.93,2.73,31.4c-3.55,20.71-17.03,38.13-33.71,50.27c-8.65,6.3-18.13,11.39-27.82,15.88
			c-10.41,4.82-21.17,8.87-32.16,12.13c-21.65,6.41-44.2,9.72-66.78,9.66c-2.72-0.01-5.44-0.06-8.15-0.17
			C9.19,153.13,9.19,154.38,10,154.41L10,154.41z"/>
	</g>
</g>
</svg>
