<svg width="15" height="16" viewBox="0 0 15 16" fill="none" xmlns="http://www.w3.org/2000/svg">
<path d="M3.91378 13.9999H1.01128V4.65306H3.91378V13.9999ZM2.46097 3.37806C1.53284 3.37806 0.780029 2.60931 0.780029 1.68118C0.780029 1.23537 0.957128 0.807816 1.27236 0.492579C1.5876 0.177342 2.01515 0.000244141 2.46097 0.000244141C2.90678 0.000244141 3.33433 0.177342 3.64957 0.492579C3.96481 0.807816 4.1419 1.23537 4.1419 1.68118C4.1419 2.60931 3.38878 3.37806 2.46097 3.37806ZM14.7769 13.9999H11.8807V9.44993C11.8807 8.36556 11.8588 6.97493 10.3716 6.97493C8.86253 6.97493 8.63128 8.15306 8.63128 9.37181V13.9999H5.7319V4.65306H8.51565V5.92806H8.55628C8.94378 5.19368 9.89034 4.41868 11.3025 4.41868C14.24 4.41868 14.78 6.35306 14.78 8.86556V13.9999H14.7769Z" fill="white"/>
</svg>
