<svg width="17" height="16" viewBox="0 0 17 16" fill="none" xmlns="http://www.w3.org/2000/svg">
<path d="M14.5753 4.741C14.5854 4.88313 14.5854 5.02529 14.5854 5.16741C14.5854 9.50241 11.286 14.4973 5.2555 14.4973C3.39763 14.4973 1.67175 13.9593 0.219971 13.0253C0.483939 13.0557 0.737721 13.0659 1.01185 13.0659C2.54481 13.0659 3.956 12.5481 5.08291 11.6649C3.64128 11.6344 2.43316 10.6903 2.01691 9.39075C2.21997 9.42119 2.423 9.4415 2.63622 9.4415C2.93063 9.4415 3.22506 9.40088 3.49916 9.32985C1.99663 9.02525 0.869689 7.70547 0.869689 6.11157V6.07097C1.30622 6.31463 1.81388 6.46691 2.35191 6.48719C1.46866 5.89835 0.890002 4.89329 0.890002 3.75622C0.890002 3.1471 1.05241 2.58872 1.33669 2.10141C2.95091 4.09125 5.37731 5.39072 8.0981 5.53288C8.04735 5.28922 8.01688 5.03544 8.01688 4.78163C8.01688 2.9745 9.47881 1.50244 11.2961 1.50244C12.2402 1.50244 13.093 1.89838 13.692 2.53797C14.4331 2.39585 15.1438 2.12172 15.7732 1.7461C15.5295 2.50754 15.0118 3.14713 14.3316 3.55319C14.9915 3.48216 15.6311 3.29938 16.2199 3.0456C15.7733 3.69532 15.2149 4.27397 14.5753 4.741Z" fill="white"/>
</svg>
