<?xml version="1.0" encoding="utf-8"?>
<!-- Generator: Adobe Illustrator 23.1.0, SVG Export Plug-In . SVG Version: 6.00 Build 0)  -->
<svg version="1.1" id="Layer_1" xmlns="http://www.w3.org/2000/svg" xmlns:xlink="http://www.w3.org/1999/xlink" x="0px" y="0px"
	 viewBox="0 0 595.28 841.89" style="enable-background:new 0 0 595.28 841.89;" xml:space="preserve">
<g>
	<g>
		<path d="M235.7,352.42c-2.76-1.74-6.48-2.64-9.66-1.6c-2.64,0.86-4.93,3.76-3.54,6.58c1.19,2.43,4.14,2.37,6.43,2.75
			c1.2,0.2,2.53,0.55,3.15,1.7c0.69,1.27,0.33,2.97-0.65,3.99c-2.83,2.95-7.27,0.82-9.93-1.17c-0.77-0.58-1.52,0.72-0.76,1.3
			c2.52,1.88,5.6,3.37,8.81,2.57c2.76-0.69,4.83-3.21,4.29-6.13c-0.53-2.86-3.27-3.57-5.76-3.88c-1.15-0.15-2.47-0.22-3.45-0.9
			c-1.27-0.88-1.25-2.59-0.45-3.79c1.02-1.51,3.04-1.95,4.74-1.94c2.15,0.01,4.21,0.67,6.01,1.81
			C235.76,354.23,236.51,352.93,235.7,352.42L235.7,352.42z"/>
	</g>
</g>
<g>
	<g>
		<path d="M239.39,343.17c0.99,4.94,1.27,9.98,0.88,14.99c-0.08,0.96,1.43,0.96,1.5,0c0.4-5.15,0.08-10.32-0.93-15.39
			C240.64,341.82,239.2,342.23,239.39,343.17L239.39,343.17z"/>
	</g>
</g>
<g>
	<g>
		<path d="M250.73,347.75c-1.74,3.11-4.98,5.23-8.54,5.5c-0.67,0.05-1.11,1.05-0.38,1.4c4.2,1.98,7.69,5.17,10.04,9.17
			c0.49,0.83,1.78,0.08,1.3-0.76c-2.46-4.21-6.16-7.63-10.58-9.71c-0.13,0.47-0.25,0.93-0.38,1.4c4.09-0.31,7.83-2.65,9.83-6.24
			C252.49,347.66,251.2,346.91,250.73,347.75L250.73,347.75z"/>
	</g>
</g>
<g>
	<g>
		<path d="M254.47,351.06c0.03,2.36,0.24,4.81,0.85,7.1c0.5,1.88,1.86,2.4,3.72,2.18c3.43-0.41,6.33-3.19,6.89-6.59
			c-0.46,0.06-0.91,0.12-1.37,0.18c2,4.13,2.75,8.69,3.11,13.23c0.34,4.24,1.04,9.15-0.72,13.16c-1.59,3.65-4.91,6.21-8.34,8.02
			c-3.95,2.08-8.39,3.47-12.85,3.83c-4.64,0.38-10.61-0.73-11.9-6c-0.23-0.94-1.68-0.54-1.45,0.4c1.07,4.35,5.26,6.65,9.45,7.09
			c4.96,0.52,10.19-0.8,14.73-2.72c3.99-1.69,7.9-4.07,10.43-7.68c2.84-4.07,2.6-8.94,2.32-13.67c-0.33-5.62-1-11.28-3.48-16.41
			c-0.27-0.55-1.27-0.45-1.37,0.18c-0.43,2.6-2.38,4.77-4.97,5.39c-0.53,0.13-1.51,0.33-2.03,0.08c-0.77-0.36-0.87-1.71-1-2.42
			c-0.33-1.76-0.49-3.54-0.51-5.34C255.96,350.09,254.46,350.09,254.47,351.06L254.47,351.06z"/>
	</g>
</g>
<g>
	<g>
		<path d="M243.94,378.08c0.19,0.92,0.38,1.84,0.57,2.76c0.11,0.51,0.74,0.86,1.23,0.7c0.54-0.18,0.81-0.68,0.7-1.23
			c-0.19-0.92-0.38-1.84-0.57-2.76c-0.11-0.51-0.74-0.86-1.23-0.7C244.1,377.02,243.83,377.53,243.94,378.08L243.94,378.08z"/>
	</g>
</g>
<g>
	<g>
		<path d="M256.97,371.98c-0.64,0.64-1.33,1.25-2.05,1.78c-0.38,0.28-0.77,0.54-1.17,0.78c-0.43,0.26-0.85,0.54-0.96,1.07
			c-0.23,1.15,1.18,1.63,2,1.98c0.93,0.39,1.88,0.72,2.85,0.95c0.39,0.09,0.81-0.12,0.92-0.52c0.1-0.38-0.13-0.83-0.52-0.92
			c-0.82-0.2-1.62-0.45-2.41-0.76c-0.36-0.14-0.71-0.31-1.06-0.48c-0.08-0.04-0.16-0.08-0.24-0.12c-0.04-0.02-0.08-0.05-0.12-0.07
			c0.05,0.04,0.05,0.04,0.01,0.01c-0.04-0.04-0.04-0.03,0.01,0.02c0.04,0.08,0.04,0.17,0.02,0.26c-0.03,0.09-0.1,0.09,0.01,0.05
			c-0.1,0.04,0.07-0.04,0.09-0.05c0.08-0.05,0.16-0.1,0.24-0.15c0.19-0.12,0.37-0.23,0.55-0.36c0.36-0.25,0.72-0.51,1.06-0.78
			c0.64-0.5,1.25-1.04,1.82-1.61C258.71,372.36,257.65,371.29,256.97,371.98L256.97,371.98z"/>
	</g>
</g>
</svg>
